<?xml version="1.0" encoding="iso-8859-1"?>
<!-- Generator: Adobe Illustrator 19.0.0, SVG Export Plug-In . SVG Version: 6.00 Build 0)  -->
<svg version="1.1" id="Layer_1" xmlns="http://www.w3.org/2000/svg" xmlns:xlink="http://www.w3.org/1999/xlink" x="0px" y="0px"
	 viewBox="0 0 511.994 511.994" style="enable-background:new 0 0 511.994 511.994;" xml:space="preserve">
<path style="fill:#FC6E51;" d="M349.574,251.777l75.031-75.046c16.921-16.921,40.982-57.593,57.842-90.014
	c9.281-17.844,17.25-34.796,22.453-47.733c7.312-18.156,9.828-28.562,3.359-35.047c-5.5-5.5-13.984-5.265-32.453,0.875
	c-12.531,4.172-28.452,10.828-44.812,18.734c-19.28,9.328-67.265,34.14-96.342,63.218l-75.421,75.42c-2,2-3.124,4.718-3.124,7.546
	s1.124,5.547,3.124,7.547l74.874,74.874v0.016c4.172,4.156,10.922,4.156,15.093,0C349.324,252.042,349.449,251.902,349.574,251.777z
	"/>
<path style="opacity:0.2;fill:#FFFFFF;enable-background:new    ;" d="M349.574,251.777l75.031-75.046
	c16.921-16.921,40.982-57.593,57.842-90.014c9.281-17.844,17.25-34.796,22.453-47.733c7.312-18.156,9.828-28.562,3.359-35.047
	c-2.766-2.75-6.266-4.062-11.406-3.922c-0.359,5.984-2.938,13.719-7.031,23.891c-5.203,12.938-13.188,29.89-22.469,47.733
	c-16.858,32.421-40.904,73.077-57.826,90.014l-75.046,75.03c-0.125,0.141-0.234,0.266-0.375,0.391
	c-4.156,4.172-10.906,4.172-15.078,0l15.078,15.078v0.016c4.172,4.156,10.922,4.156,15.093,0
	C349.324,252.042,349.449,251.902,349.574,251.777z"/>
<path style="fill:#CCD1D9;" d="M280.467,306.213c-4.172-4.172-4.172-10.922,0-15.094l32-31.999c4.156-4.156,10.905-4.156,15.077,0
	c4.172,4.171,4.172,10.921,0,15.093l-31.999,32C291.389,310.369,284.623,310.369,280.467,306.213z"/>
<path style="fill:#E6E9ED;" d="M35.19,402.258c-4.164-4.172-4.164-10.922,0-15.094l32.023-32.015c4.164-4.172,10.914-4.172,15.085,0
	c4.164,4.156,4.164,10.921,0,15.077l-32.023,32.031C46.104,406.414,39.354,406.414,35.19,402.258z"/>
<path style="fill:#CCD1D9;" d="M88.447,348.993c-4.164-4.156-4.164-10.922,0-15.078l149.356-149.356
	c4.164-4.172,10.914-4.172,15.078,0c4.171,4.156,4.171,10.922,0,15.078L103.533,348.993
	C99.369,353.165,92.611,353.165,88.447,348.993z"/>
<path style="fill:#E6E9ED;" d="M195.133,316.869c-4.164-4.156-4.164-10.906,0-15.078l78.381-78.374
	c4.156-4.171,10.906-4.171,15.078,0c4.172,4.156,4.172,10.922,0,15.078l-78.374,78.374
	C206.055,321.041,199.297,321.041,195.133,316.869z"/>
<path style="fill:#CCD1D9;" d="M3.144,508.865c-4.164-4.156-4.172-10.922,0-15.078L173.79,323.135
	c4.164-4.156,10.921-4.172,15.085,0s4.164,10.921,0,15.093L18.222,508.865C14.058,513.037,7.308,513.037,3.144,508.865z"/>
<path style="fill:#E6E9ED;" d="M141.806,444.867c-4.164-4.156-4.164-10.906,0-15.078l117.325-117.326
	c4.164-4.172,10.922-4.172,15.086,0c4.156,4.156,4.156,10.906,0,15.078L156.891,444.867
	C152.719,449.038,145.97,449.038,141.806,444.867z"/>
<g>
</g>
<g>
</g>
<g>
</g>
<g>
</g>
<g>
</g>
<g>
</g>
<g>
</g>
<g>
</g>
<g>
</g>
<g>
</g>
<g>
</g>
<g>
</g>
<g>
</g>
<g>
</g>
<g>
</g>
</svg>
